# xmcd CD database file
#
# Track frame offsets:
#	150
#	15178
#	30125
#	49365
#
# Disc length: 704 seconds
#
# Revision: 3
# Processed by: cddbd v1.5.1PL0 Copyright (c) Steve Scherf et al.
# Submitted via: CDex 1.51
#
DISCID=1e02be04
DTITLE=Kahimi Karie And The Cruel Grand Orchestra - Mike Alway's Diary
DYEAR=1900
DGENRE=Rock
TTITLE0=Mike Alway's Diary (Japanese Version)
TTITLE1=Mike Alway's Diary
TTITLE2=Get Out Of Your Lazy Bed
TTITLE3=Shower To Shower
EXTD=
EXTT0=
EXTT1=
EXTT2=
EXTT3=
PLAYORDER=
